<?xml version="1.0" standalone="no"?><!DOCTYPE svg PUBLIC "-//W3C//DTD SVG 1.1//EN" "http://www.w3.org/Graphics/SVG/1.1/DTD/svg11.dtd"><svg t="1593502393620" class="icon" viewBox="0 0 1024 1024" version="1.1" xmlns="http://www.w3.org/2000/svg" p-id="3769" xmlns:xlink="http://www.w3.org/1999/xlink" width="200" height="200"><defs><style type="text/css"></style></defs><path d="M960 512a448 448 0 1 0-448 448l176-32-32-64-144 32a384 384 0 1 1 288-128l-80-112 48-32h32a288 288 0 1 0-288 176l64-48 160 224 144-96-48-64a448 448 0 0 0 128-304z m-672 0a224 224 0 1 1 448 0v48l-80-48a128 128 0 1 0-160 128v96a224 224 0 0 1-208-224z m176-64v112a64 64 0 0 1 0-112z m64 80h32l-32 32z m-48-96h16l64 32z m288 464L592 656l-48 32v-48a128 128 0 0 0 80-64h48l-48 32 176 256z" fill="" p-id="3770"></path></svg>